<svg id="Layer_5" data-name="Layer 5" xmlns="http://www.w3.org/2000/svg" viewBox="0 0 184.48 184.48"><defs><style>.cls-1{fill:#a7c5eb;}.cls-2{fill:#97b8db;}.cls-3{fill:#6c94b7;}.cls-4{fill:#bedbbb;}.cls-5{fill:#8db596;}.cls-6{fill:#b1ccae;}.cls-7{fill:#f9f9f9;}</style></defs><title>HtE 2021 Full Earth Logo</title><g id="Full_Earth" data-name="Full Earth"><path class="cls-1" d="M569.59,295.87h0a92.61,92.61,0,0,1,20.91-29.25l3.56-3.18L602,277.16l5.86,10.15,4.16,7.22-4,2.33L587.63,308.6,574.84,316,567,302.34Z" transform="translate(-561.46 -241.55)"/><path class="cls-2" d="M628.79,316.67l-20.3,11.73-4.93,2.84-2.14,1.24h0l-1.61.93-17,9.84-11,6.36-2.58-4.47L564.43,337l-2.52-4.37-.43-.74h0l.43-7.17a91.57,91.57,0,0,1,3.67-18.21c.43-1.38.9-2.75,1.39-4.11l2.62-6.47h0L590.1,284l7.84-4.52,4-2.34,3-1.73,4.61,8,1.25,2.17,9.52,16.48,3.21,5.56,2.35,4.07Z" transform="translate(-561.46 -241.55)"/><path class="cls-3" d="M620.87,361.23,611,366.91l-.36.2-32.94,19-1.07-1.59c-.18-.26-.35-.52-.52-.79s-.35-.53-.51-.8c-.29-.45-.56-.89-.83-1.34a2.26,2.26,0,0,1-.16-.26c-.17-.27-.33-.54-.48-.82a1.5,1.5,0,0,1-.19-.32,4.49,4.49,0,0,1-.24-.42.89.89,0,0,1-.13-.23c-.27-.44-.52-.88-.76-1.33a89.62,89.62,0,0,1-5.12-11,91.32,91.32,0,0,1-5-18.39.77.77,0,0,1,0-.15,88.47,88.47,0,0,1-1.08-10.12c-.09-1.59-.13-3.2-.13-4.81,0-.32,0-.64,0-1s0-.66,0-1h0l.43-7.17,26.25-15.15,2.14-1.24,4.83,8.36.35.61.78,1.35,6.46,11.2.84,1.45,3.5,6.07,6.51,11.27,5.36,9.29Z" transform="translate(-561.46 -241.55)"/><path class="cls-3" d="M637.89,242.9,653.54,270,661,282.89l3.71,6.42L654,295.49l-12.6,7.28L635.71,306l-9.79,5.65-7,4.07-5.56-9.63L608,296.86l-4.16-7.21-5.86-10.15-7.44-12.89,3.56-3.18a91.81,91.81,0,0,1,39.44-19.66Z" transform="translate(-561.46 -241.55)"/><rect class="cls-1" x="591.32" y="287.78" width="42.91" height="42.91" transform="matrix(0.87, -0.5, 0.5, 0.87, -633.98, 106.26)"/><rect class="cls-2" x="598.86" y="299.15" width="65.87" height="47.61" transform="translate(-638.29 117.61) rotate(-30)"/><rect class="cls-1" x="642.65" y="265.69" width="53.53" height="62.49" transform="translate(-620.24 132.93) rotate(-30)"/><rect class="cls-3" x="628" y="308.77" width="63.01" height="42.98" transform="translate(-638.23 132.44) rotate(-30)"/><path class="cls-2" d="M630.2,400.1l-.18.11-22.89,13.21-.81-.48h0a92.74,92.74,0,0,1-28.57-26.81h0l-1.07-1.59c-.18-.26-.35-.52-.52-.79s-.35-.53-.51-.8c-.29-.45-.56-.89-.83-1.34a2.26,2.26,0,0,1-.16-.26c-.17-.27-.33-.54-.48-.82a1.5,1.5,0,0,1-.19-.32,4.49,4.49,0,0,1-.24-.42.89.89,0,0,1-.13-.23c-.27-.44-.52-.88-.76-1.33l22-12.69,11.2-6.46.36-.21,4.65,8.05,2.33,4,6.36,11,.89,1.54,4.38,7.58.19.33Z" transform="translate(-561.46 -241.55)"/><rect class="cls-1" x="611.23" y="340.87" width="42.91" height="42.91" transform="translate(-657.86 123.33) rotate(-30)"/><rect class="cls-1" x="611.23" y="340.87" width="42.91" height="42.91" transform="translate(-657.86 123.33) rotate(-30)"/><path class="cls-3" d="M672.65,422l-5.15,3h0c-1.17.17-2.35.33-3.53.45a92.32,92.32,0,0,1-56.82-12l-.81-.48h0l-10-17.42,23.11-13.34.36-.21,20.35-11.75,2-1.15,5.46,9.46,9,15.55,7.1,12.31Z" transform="translate(-561.46 -241.55)"/><rect class="cls-2" x="644.72" y="344.43" width="54.97" height="52.92" transform="translate(-656.85 144.24) rotate(-30)"/><rect class="cls-1" x="677.14" y="314.77" width="42.91" height="42.91" transform="translate(-635.98 152.79) rotate(-30)"/><path class="cls-3" d="M745.94,333.79c0,.38,0,.75,0,1.12h0a91.65,91.65,0,0,1-17.58,53h0l-1.63.94-15,8.66-8.2-14.2-7.11-12.31-3.8-6.6-2.38-4.11L696,357l17.7-10.22L725.53,340l19.25-11.11,1.11,1.91h0C745.92,331.78,745.94,332.78,745.94,333.79Z" transform="translate(-561.46 -241.55)"/><path class="cls-2" d="M633.5,243.77l-2.75,1.59L647.28,274l7.28,12.6,6.42-3.71,19.81-11.44,3-1.73,21.49-12.41a92,92,0,0,0-51.58-15.76,92.59,92.59,0,0,0-15.81,1.35Z" transform="translate(-561.46 -241.55)"/><path class="cls-2" d="M745.94,333.79c0,.38,0,.75,0,1.12h0l-29.36,16.95-.54-.93-2.38-4.12-17.32-30-1.75-3L690.11,306l8-4.61,4.35-2.51,28.07-16.2a90.61,90.61,0,0,1,5.74,9.89,91.66,91.66,0,0,1,9.64,38.16h0C745.92,331.78,745.94,332.78,745.94,333.79Z" transform="translate(-561.46 -241.55)"/><path class="cls-1" d="M727.13,389.62A92.21,92.21,0,0,1,667.5,425h0c-1.17.17-2.35.33-3.53.45L648.5,398.71l6-3.48,2-1.15,39.88-23,5.73-3.31,9.28-5.36,15.31,26.52Z" transform="translate(-561.46 -241.55)"/><path class="cls-3" d="M736.25,292.6l-27.64,16-.9.52-3.9,2.25-1.25-2.17-4.47-7.74-17.3-30-7.55-13.07,2.41-1.39,14.08-8.13a91.51,91.51,0,0,1,15.55,8.45,92.7,92.7,0,0,1,25.23,25.4A90.61,90.61,0,0,1,736.25,292.6Z" transform="translate(-561.46 -241.55)"/><path class="cls-4" d="M613.2,308.81l-5.08,2.93-2.94,1.7-8.92,5.15-2.15,1.23h0l-1.61.93-15.22,8.78L564.43,337l-2.84,1.65c-.09-1.59-.13-3.2-.13-4.81,0-.32,0-.64,0-1s0-.66,0-1h0l.43-7.17a91.57,91.57,0,0,1,3.67-18.21l2.82-1.63,25.28-14.59,6.59-3.81,1,1.77h0l1.26,2.17,4.16,7.21,5.36,9.27.53.91Z" transform="translate(-561.46 -241.55)"/><path class="cls-5" d="M608.06,344l-1.61.93-17.06,9.84-.59.34-21.07,12.17a91.32,91.32,0,0,1-5-18.39.77.77,0,0,1,0-.15,88.47,88.47,0,0,1-1.08-10.12c-.09-1.59-.13-3.2-.13-4.81,0-.32,0-.64,0-1l.44-.25,29.67-17.14,1.4,2.43.35.61h0l.77,1.34h0l6.47,11.2.1.17.74,1.28,3.5,6.07Z" transform="translate(-561.46 -241.55)"/><rect class="cls-4" x="659.1" y="346.79" width="30.99" height="18.46" transform="translate(-649.09 143.44) rotate(-30)"/><rect class="cls-5" x="659.48" y="350.17" width="50.59" height="32.95" transform="translate(-653.04 149.95) rotate(-30)"/><rect class="cls-4" x="695.82" y="365.38" width="30.99" height="18.46" transform="translate(-653.46 164.29) rotate(-30)"/><path class="cls-6" d="M595.6,366.86l-22,12.69c-.27-.44-.52-.88-.76-1.33a89.62,89.62,0,0,1-5.12-11,91.32,91.32,0,0,1-5-18.39.77.77,0,0,1,0-.15l5.83-3.36.59-.34,10.42-6,2.58,4.47.07.12L588.73,355l.07.12,6,10.32.07.12Z" transform="translate(-561.46 -241.55)"/><rect class="cls-6" x="640" y="349.43" width="30.99" height="18.46" transform="translate(-652.97 134.25) rotate(-30)"/><rect class="cls-4" x="696.93" y="346.79" width="30.99" height="18.46" transform="translate(-644.02 162.36) rotate(-30)"/><rect class="cls-6" x="652.69" y="265.39" width="30.99" height="18.46" transform="translate(-609.25 129.33) rotate(-30)"/><rect class="cls-5" x="666.45" y="268.84" width="39.51" height="26.91" transform="translate(-610.67 139.37) rotate(-30)"/><rect class="cls-4" x="659.86" y="283.59" width="24.04" height="24.76" transform="translate(-619.42 134.04) rotate(-30)"/><rect class="cls-6" x="678.79" y="291.27" width="30.99" height="18.46" transform="translate(-618.69 145.85) rotate(-30)"/><rect class="cls-7" x="577.96" y="319.18" width="32.21" height="14.49" transform="matrix(0.87, -0.5, 0.5, 0.87, -645.08, 99.21)"/><rect class="cls-7" x="604.73" y="310.33" width="32.21" height="14.49" transform="matrix(0.87, -0.5, 0.5, 0.87, -637.07, 111.41)"/><polygon class="cls-7" points="57.81 65.87 47.52 71.87 46.12 69.14 56.41 63.14 57.81 65.87"/><polygon class="cls-7" points="135.25 75.72 127.3 80.46 123.25 73.2 131.19 68.46 135.25 75.72"/><rect class="cls-7" x="667.96" y="294.78" width="32.21" height="14.49" transform="translate(-620.82 140.94) rotate(-30)"/><rect class="cls-7" x="697.38" y="300.31" width="32.21" height="14.49" transform="matrix(0.87, -0.5, 0.5, 0.87, -619.65, 156.39)"/><rect class="cls-7" x="668.41" y="328.18" width="32.21" height="14.49" transform="matrix(0.87, -0.5, 0.5, 0.87, -637.46, 145.64)"/><rect class="cls-7" x="586.96" y="378.03" width="32.21" height="14.49" transform="matrix(0.87, -0.5, 0.5, 0.87, -673.3, 111.6)"/><rect class="cls-7" x="626.28" y="382.18" width="32.21" height="14.49" transform="matrix(0.87, -0.5, 0.5, 0.87, -670.11, 131.81)"/><polygon class="cls-7" points="73.85 139.79 64.11 145.6 59.14 136.7 68.88 130.89 73.85 139.79"/><path class="cls-7" d="M742,360.59a90,90,0,0,1-6.81,16.48l-15.65,9-7.24-12.55,27.89-16.1Z" transform="translate(-561.46 -241.55)"/><path class="cls-7" d="M728.52,388.27c-.37.53-.76,1-1.15,1.55a89,89,0,0,1-6.63,7.76L717.07,391l9.74-5.81Z" transform="translate(-561.46 -241.55)"/><rect class="cls-7" x="588.92" y="270.43" width="32.21" height="14.49" transform="matrix(0.87, -0.5, 0.5, 0.87, -619.24, 98.16)"/><polygon class="cls-7" points="91.44 24.28 79.7 31.28 73.71 20.55 85.45 13.55 91.44 24.28"/><polygon class="cls-7" points="75.65 32.65 65.91 38.46 60.94 29.56 70.67 23.75 75.65 32.65"/></g></svg>