<svg id="Layer_4" data-name="Layer 4" xmlns="http://www.w3.org/2000/svg" viewBox="0 0 214.67 208.65"><defs><style>.cls-1{fill:#b1ccae;}.cls-2{fill:#a7c5eb;}.cls-3{fill:#97b8db;}.cls-4{fill:#6c94b7;}.cls-5{fill:#bedbbb;}.cls-6{fill:#8db596;}.cls-7{fill:#f9f9f9;}</style></defs><title>HtE 2021 Circuit Earth Logo</title><g id="Earth_w_wires" data-name="Earth w/ wires"><polygon class="cls-1" points="144.75 34.9 139.88 43.33 131.45 48.19 113.29 58.68 110.86 54.46 136.32 39.76 144.75 34.9"/><polygon class="cls-1" points="168.87 58.56 160.43 63.43 131.88 79.91 129.44 75.7 150.69 63.43 159.12 58.56 168.87 58.56"/><path class="cls-2" d="M687.65,363.4h0a92.61,92.61,0,0,1,20.91-29.25l3.56-3.18L720,344.69l5.86,10.15,4.16,7.22-4,2.33-20.33,11.74-12.79,7.38L685,369.87Z" transform="translate(-679.52 -284.91)"/><path class="cls-3" d="M746.85,384.2l-20.3,11.73-4.93,2.84L719.48,400h0l-1.61.93-17.05,9.84-11,6.36-2.58-4.47-4.73-8.19L680,400.11l-.43-.74h0l.43-7.17A91.57,91.57,0,0,1,683.64,374c.43-1.38.9-2.75,1.39-4.11l2.62-6.47h0l20.51-11.84L716,347l4-2.34,3-1.73,4.61,8,1.25,2.17,9.52,16.48,3.21,5.56,2.35,4.07Z" transform="translate(-679.52 -284.91)"/><path class="cls-4" d="M738.93,428.76l-9.83,5.68-.36.2-32.94,19-1.07-1.59c-.18-.26-.35-.52-.52-.79s-.35-.53-.51-.8c-.29-.45-.56-.89-.83-1.34a2.26,2.26,0,0,1-.16-.26c-.17-.27-.33-.54-.48-.82a1.5,1.5,0,0,1-.19-.32,4.49,4.49,0,0,1-.24-.42.89.89,0,0,1-.13-.23c-.27-.44-.52-.88-.76-1.33a89.62,89.62,0,0,1-5.12-11,91.32,91.32,0,0,1-5-18.39.77.77,0,0,1,0-.15,88.47,88.47,0,0,1-1.08-10.12c-.09-1.59-.13-3.2-.13-4.81,0-.32,0-.64,0-1s0-.66,0-1h0l.43-7.17L706.22,377l2.14-1.24,4.83,8.36.35.61.78,1.35,6.46,11.2.84,1.45,3.5,6.07,6.51,11.27L737,425.4Z" transform="translate(-679.52 -284.91)"/><path class="cls-4" d="M756,310.43l15.65,27.1L779,350.42l3.71,6.42L772,363l-12.6,7.28-5.67,3.27L744,379.22l-7.05,4.07-5.56-9.63L726,364.39l-4.16-7.21L716,347l-7.44-12.89,3.56-3.18a91.81,91.81,0,0,1,39.44-19.66Z" transform="translate(-679.52 -284.91)"/><rect class="cls-2" x="709.38" y="355.31" width="42.91" height="42.91" transform="translate(-769.99 130.99) rotate(-30)"/><rect class="cls-3" x="716.93" y="366.67" width="65.87" height="47.61" transform="translate(-774.3 142.33) rotate(-30)"/><rect class="cls-2" x="760.71" y="333.21" width="53.53" height="62.49" transform="translate(-756.25 157.66) rotate(-30)"/><rect class="cls-4" x="746.06" y="376.29" width="63.01" height="42.98" transform="matrix(0.87, -0.5, 0.5, 0.87, -774.24, 157.17)"/><path class="cls-3" d="M748.26,467.63l-.18.11L725.19,481q-.41-.22-.81-.48h0a92.74,92.74,0,0,1-28.57-26.81h0l-1.07-1.59c-.18-.26-.35-.52-.52-.79s-.35-.53-.51-.8c-.29-.45-.56-.89-.83-1.34a2.26,2.26,0,0,1-.16-.26c-.17-.27-.33-.54-.48-.82a1.5,1.5,0,0,1-.19-.32,4.49,4.49,0,0,1-.24-.42.89.89,0,0,1-.13-.23c-.27-.44-.52-.88-.76-1.33l22-12.69,11.2-6.46.36-.21,4.65,8.05,2.33,4,6.36,11,.89,1.54,4.38,7.58.19.33Z" transform="translate(-679.52 -284.91)"/><rect class="cls-2" x="729.29" y="408.39" width="42.91" height="42.91" transform="translate(-793.87 148.05) rotate(-30)"/><rect class="cls-2" x="729.29" y="408.39" width="42.91" height="42.91" transform="translate(-793.87 148.05) rotate(-30)"/><path class="cls-4" d="M790.71,489.56l-5.15,3h0c-1.17.17-2.35.33-3.53.45a92.32,92.32,0,0,1-56.82-12q-.41-.22-.81-.48h0l-10-17.42,23.11-13.34.36-.21,20.35-11.75,2-1.15,5.46,9.46,9,15.55,7.1,12.31Z" transform="translate(-679.52 -284.91)"/><rect class="cls-3" x="762.78" y="411.95" width="54.97" height="52.92" transform="translate(-792.85 168.96) rotate(-30)"/><rect class="cls-2" x="797.53" y="380.97" width="42.91" height="42.91" transform="translate(-771.01 178.5) rotate(-30)"/><path class="cls-2" d="M845.19,457.15a92.21,92.21,0,0,1-59.63,35.39h0c-1.17.17-2.35.33-3.53.45l-15.45-26.75,6-3.48,2-1.15,39.88-23,5.73-3.31,9.28-5.36,15.31,26.52Z" transform="translate(-679.52 -284.91)"/><path class="cls-5" d="M731.26,376.34l-5.08,2.93-2.94,1.7-8.92,5.15-2.15,1.23h0l-1.61.93-15.22,8.78-12.85,7.41-2.84,1.65c-.09-1.59-.13-3.2-.13-4.81,0-.32,0-.64,0-1s0-.66,0-1h0l.43-7.17A91.57,91.57,0,0,1,683.64,374l2.82-1.63,25.28-14.59,6.59-3.81,1,1.77h0l1.26,2.17,4.16,7.21,5.36,9.27.53.91Z" transform="translate(-679.52 -284.91)"/><path class="cls-6" d="M726.12,411.51l-1.61.93-17.06,9.84-.59.34-21.07,12.17a91.32,91.32,0,0,1-5-18.39.77.77,0,0,1,0-.15,88.47,88.47,0,0,1-1.08-10.12c-.09-1.59-.13-3.2-.13-4.81,0-.32,0-.64,0-1l.44-.25L709.64,383l1.4,2.43.35.61h0l.77,1.34h0l6.47,11.2.1.17.74,1.28,3.5,6.07Z" transform="translate(-679.52 -284.91)"/><rect class="cls-5" x="777.17" y="414.32" width="30.99" height="18.46" transform="translate(-785.1 168.17) rotate(-30)"/><rect class="cls-6" x="777.54" y="417.69" width="50.59" height="32.95" transform="translate(-789.04 174.68) rotate(-30)"/><path class="cls-1" d="M713.66,434.39l-22,12.69c-.27-.44-.52-.88-.76-1.33a89.62,89.62,0,0,1-5.12-11,91.32,91.32,0,0,1-5-18.39.77.77,0,0,1,0-.15l5.83-3.36.59-.34,10.42-6,2.58,4.47.07.12,6.57,11.38.07.12,6,10.32.07.12Z" transform="translate(-679.52 -284.91)"/><rect class="cls-1" x="758.07" y="416.95" width="30.99" height="18.46" transform="translate(-788.98 158.97) rotate(-30)"/><rect class="cls-1" x="777.39" y="333.17" width="30.99" height="18.46" transform="translate(-744.49 157.4) rotate(-30)"/><rect class="cls-5" x="777.12" y="348.08" width="36.16" height="24.76" transform="translate(-753.22 160.98) rotate(-30)"/><rect class="cls-1" x="796.86" y="358.8" width="30.99" height="18.46" transform="translate(-754.7 170.57) rotate(-30)"/><rect class="cls-7" x="696.03" y="386.7" width="32.21" height="14.49" transform="matrix(0.87, -0.5, 0.5, 0.87, -781.09, 123.93)"/><rect class="cls-7" x="722.79" y="377.85" width="32.21" height="14.49" transform="matrix(0.87, -0.5, 0.5, 0.87, -773.08, 136.13)"/><polygon class="cls-7" points="57.81 90.04 47.52 96.03 46.12 93.31 56.41 87.31 57.81 90.04"/><polygon class="cls-7" points="135.25 99.89 127.3 104.63 123.25 97.37 131.19 92.63 135.25 99.89"/><rect class="cls-7" x="786.03" y="362.3" width="32.21" height="14.49" transform="translate(-756.83 165.67) rotate(-30)"/><rect class="cls-7" x="786.47" y="395.7" width="32.21" height="14.49" transform="translate(-773.47 170.36) rotate(-30)"/><rect class="cls-7" x="705.03" y="445.55" width="32.21" height="14.49" transform="matrix(0.87, -0.5, 0.5, 0.87, -809.31, 136.32)"/><rect class="cls-7" x="744.35" y="449.7" width="32.21" height="14.49" transform="matrix(0.87, -0.5, 0.5, 0.87, -806.12, 156.53)"/><polygon class="cls-7" points="73.85 163.96 64.11 169.77 59.14 160.87 68.88 155.06 73.85 163.96"/><rect class="cls-7" x="706.99" y="337.95" width="32.21" height="14.49" transform="matrix(0.87, -0.5, 0.5, 0.87, -755.25, 122.88)"/><polygon class="cls-7" points="75.65 56.82 65.91 62.63 60.94 53.73 70.67 47.92 75.65 56.82"/><polygon class="cls-4" points="112.31 19.14 112.31 24.76 107.44 27.57 81.33 42.64 78.9 38.43 107.44 21.95 112.31 19.14"/><polygon class="cls-4" points="112.31 8.18 112.31 24.76 107.44 27.57 107.44 8.18 112.31 8.18"/><polygon class="cls-1" points="151.3 23.55 144.75 34.9 139.88 43.33 131.45 48.19 136.32 39.76 147.09 21.11 151.3 23.55"/><polygon class="cls-1" points="180.16 58.56 180.16 63.43 150.69 63.43 159.12 58.56 180.16 58.56"/><polygon class="cls-2" points="170.39 90.62 167.51 95.6 165.52 99.04 159.96 102.25 157.09 103.91 141.8 112.74 139.37 108.52 161.96 95.48 164.83 93.82 170.39 90.62"/><polygon class="cls-2" points="174.06 84.25 170.39 90.62 167.51 95.6 165.52 99.04 159.96 102.25 157.09 103.91 159.08 100.46 161.96 95.48 169.85 81.81 174.06 84.25"/><polygon class="cls-6" points="167.03 136.37 158.59 141.24 130.04 157.72 127.6 153.51 148.85 141.24 157.28 136.37 167.03 136.37"/><polygon class="cls-6" points="178.32 136.37 178.32 141.24 148.85 141.24 157.28 136.37 178.32 136.37"/><polygon class="cls-2" points="182.23 150.14 179.63 154.64 178.99 155.01 171.2 159.5 153.04 169.99 150.61 165.77 169.25 155.01 176.07 151.07 177.68 150.14 182.23 150.14"/><polygon class="cls-2" points="207.92 150.14 207.92 155.01 169.25 155.01 176.07 151.07 177.68 150.14 207.92 150.14"/><circle class="cls-6" cx="182.65" cy="139.13" r="6.36"/><circle class="cls-2" cx="208.31" cy="152.85" r="6.36"/><circle class="cls-2" cx="172.42" cy="82.01" r="6.36"/><circle class="cls-1" cx="149.42" cy="21.84" r="6.36"/><circle class="cls-4" cx="110.05" cy="6.36" r="6.36"/><circle class="cls-1" cx="180.77" cy="61.05" r="6.36"/></g></svg>